# xmcd
#
# Track frame offsets: 
#        150
#        16132
#        36023
#        50658
#        65626
#        80637
#        100880
#        116256
#        132222
#        146012
#        166421
#        180442
#        198052
#
# Disc length: 2791 seconds
#
# Revision: 0
# Processed by: cddbd v1.5.2PL0 Copyright (c) Steve Scherf et al.
# Submitted via: ExactAudioCopy v0.99pb5
#
DISCID=a90ae50d
DTITLE=Michael Vincent - Thank You
DYEAR=2009
DGENRE=Country
TTITLE0=Hopelessly In Love
TTITLE1=Blow Me Down Home
TTITLE2=Sail Away With Me
TTITLE3=Mary High Mountain
TTITLE4=If I Love You
TTITLE5=Take Me Down the River
TTITLE6=I  Wanna Live Like That
TTITLE7=Don't Listen to Voices
TTITLE8=Country Called Heaven
TTITLE9=What's Goin On
TTITLE10=I'm So Lonesome
TTITLE11=We Are All Of Us
TTITLE12=Yesterday I heard the Rain
EXTD=
EXTT0=
EXTT1=
EXTT2=
EXTT3=
EXTT4=
EXTT5=
EXTT6=
EXTT7=
EXTT8=
EXTT9=
EXTT10=
EXTT11=
EXTT12=
PLAYORDER=
